<svg width="46" height="46" viewBox="0 0 46 46" fill="none" xmlns="http://www.w3.org/2000/svg">
<path d="M5.75 12.24C5.75 11.3123 6.41125 10.5591 7.22775 10.5591H12.3357C13.3496 10.5284 14.2447 9.79433 14.5897 8.7095L14.6472 8.51783L14.8676 7.76841C15.0017 7.30841 15.1187 6.90591 15.2835 6.5475C15.9313 5.13108 17.1312 4.14783 18.5169 3.89675C18.8696 3.8335 19.2414 3.8335 19.6669 3.8335H26.3331C26.7605 3.8335 27.1323 3.8335 27.4831 3.89675C28.8688 4.14783 30.0706 5.13108 30.7165 6.5475C30.8813 6.90591 30.9982 7.3065 31.1343 7.76841L31.3528 8.51783L31.4103 8.7095C31.7553 9.79433 32.8287 10.5303 33.8445 10.5591H38.7703C39.5887 10.5591 40.25 11.3123 40.25 12.24C40.25 13.1677 39.5887 13.9209 38.7723 13.9209H7.22583C6.41125 13.9209 5.75 13.1677 5.75 12.24Z" fill="black"/>
<path fill-rule="evenodd" clip-rule="evenodd" d="M22.2258 42.1666H23.7744C29.1085 42.1666 31.7746 42.1666 33.5111 40.4685C35.2438 38.7703 35.4201 35.9854 35.7747 30.4155L36.2864 22.3885C36.4781 19.366 36.5739 17.8537 35.7057 16.8973C34.8355 15.939 33.3674 15.939 30.4291 15.939H15.5711C12.6329 15.939 11.1628 15.939 10.2945 16.8973C9.42435 17.8556 9.52019 19.366 9.71377 22.3885L10.2255 30.4155C10.5801 35.9854 10.7564 38.7722 12.491 40.4685C14.2256 42.1666 16.8917 42.1666 22.2258 42.1666ZM19.6383 23.3622C19.5616 22.5304 18.8563 21.9247 18.0666 22.0071C17.275 22.0895 16.7 22.8313 16.7786 23.6631L17.7369 33.7505C17.8136 34.5824 18.5189 35.188 19.3086 35.1056C20.1002 35.0232 20.6752 34.2815 20.5966 33.4496L19.6383 23.3622ZM27.9355 22.0071C28.7252 22.0895 29.3021 22.8313 29.2216 23.6631L28.2633 33.7505C28.1866 34.5824 27.4794 35.188 26.6916 35.1056C25.9 35.0232 25.325 34.2815 25.4036 33.4496L26.3619 23.3622C26.4386 22.5304 27.1478 21.9247 27.9355 22.0071Z" fill="black"/>
</svg>
