<svg width="24" height="24" viewBox="0 0 24 24" fill="none" xmlns="http://www.w3.org/2000/svg">
<g id="lets-icons:check-fill">
<rect x="0.5" y="0.5" width="23" height="23" rx="11.5" fill="white"/>
<rect x="0.5" y="0.5" width="23" height="23" rx="11.5" stroke="white"/>
<g id="Group">
<path id="Vector" d="M8.67647 9.23535H8.11765C7.82123 9.23535 7.53695 9.3531 7.32735 9.5627C7.11775 9.7723 7 10.0566 7 10.353V15.3824C7 15.6788 7.11775 15.9631 7.32735 16.1727C7.53695 16.3823 7.82123 16.5001 8.11765 16.5001H13.1471C13.4435 16.5001 13.7278 16.3823 13.9373 16.1727C14.1469 15.9631 14.2647 15.6788 14.2647 15.3824V14.8236" stroke="black" stroke-linecap="round" stroke-linejoin="round"/>
<path id="Vector_2" d="M13.706 8.11771L15.3824 9.79418M16.1564 9.00344C16.3765 8.78335 16.5001 8.48484 16.5001 8.17359C16.5001 7.86233 16.3765 7.56383 16.1564 7.34374C15.9363 7.12365 15.6378 7 15.3265 7C15.0153 7 14.7168 7.12365 14.4967 7.34374L9.79419 12.0295V13.7059H11.4707L16.1564 9.00344Z" stroke="black" stroke-linecap="round" stroke-linejoin="round"/>
</g>
</g>
</svg>
