<svg width="512" height="512" viewBox="0 0 512 512" fill="none" xmlns="http://www.w3.org/2000/svg">
<g clip-path="url(#clip0_3233_972)">
<path d="M512 278.41C512 283.44 511.84 288.44 511.53 293.41C507.96 350.17 484.15 403.02 443.58 443.59C403.02 484.15 350.17 507.96 293.41 511.53C288.44 511.84 283.44 512 278.41 512C172.535 512 84.8699 442.011 55.5098 348.47C54.0798 343.92 54.8999 338.95 57.7299 335.1C60.5499 331.25 65.0399 328.98 69.8199 328.98H158.53C164.01 328.98 169.05 331.97 171.69 336.77C193.06 375.79 233.95 400.03 278.41 400.03C283.49 400.03 288.49 399.72 293.41 399.1C348.5 392.3 392.3 348.5 399.1 293.41C399.72 288.49 400.03 283.49 400.03 278.41C400.03 233.96 375.79 193.06 336.77 171.69C331.97 169.05 328.98 164.01 328.98 158.53V69.8201C328.98 65.0401 331.25 60.5501 335.1 57.7301C338.95 54.9001 343.92 54.0801 348.47 55.5101C441.923 84.8431 512 172.445 512 278.41Z" fill="#FAD557"/>
<path d="M511.53 293.41C511.84 288.44 512 283.44 512 278.41C512 172.445 441.923 84.8431 348.47 55.5101C343.92 54.0801 338.95 54.9001 335.1 57.7301C333.202 59.1225 331.658 60.9428 330.595 63.0434C329.532 65.144 328.979 67.4657 328.98 69.8201V158.53C328.98 164.01 331.97 169.05 336.77 171.69C375.79 193.06 400.03 233.96 400.03 278.41C400.03 283.49 399.72 288.49 399.1 293.41C395.7 320.955 383.05 345.678 364.364 364.364L443.585 443.585C484.152 403.016 507.96 350.168 511.53 293.41Z" fill="#FCB12B"/>
<path d="M278.406 0C204.042 0 134.128 28.959 81.543 81.544C28.959 134.128 0 204.042 0 278.406C0 286.69 6.716 293.406 15 293.406H278.406C286.69 293.406 293.406 286.69 293.406 278.406V15C293.406 6.716 286.69 0 278.406 0Z" fill="#7FECA0"/>
<path d="M293.41 399.1V511.53C288.44 511.84 283.44 512 278.41 512C172.535 512 84.8699 442.011 55.5098 348.47C54.0798 343.92 54.8999 338.95 57.7299 335.1C60.5499 331.25 65.0399 328.98 69.8199 328.98H158.53C164.01 328.98 169.05 331.97 171.69 336.77C193.06 375.79 233.95 400.03 278.41 400.03C283.49 400.03 288.49 399.72 293.41 399.1Z" fill="#72A3FC"/>
<path d="M293.405 15C293.405 6.716 286.689 0 278.405 0C204.041 0 134.127 28.959 81.543 81.544L289.012 289.013C290.407 287.622 291.513 285.969 292.267 284.148C293.021 282.328 293.408 280.377 293.405 278.407V15Z" fill="#3AD475"/>
<path d="M336.77 171.69C375.79 193.06 400.03 233.96 400.03 278.41C400.03 283.49 399.72 288.49 399.1 293.41H511.53C511.84 288.44 512 283.44 512 278.41C512 172.445 441.923 84.8431 348.47 55.5101C343.92 54.0801 338.95 54.9001 335.1 57.7301C333.202 59.1225 331.658 60.9428 330.595 63.0434C329.532 65.144 328.979 67.4657 328.98 69.8201V158.53C328.98 164.01 331.97 169.05 336.77 171.69Z" fill="#FC495C"/>
</g>
<defs>
<clipPath id="clip0_3233_972">
<rect width="512" height="512" fill="white"/>
</clipPath>
</defs>
</svg>
